# xmcd CD database file
#
# Track frame offsets:
#	150
#	21052
#	42090
#
# Disc length: 840 seconds
#
# Revision: 0
# Processed by: cddbd v1.5.1PL0 Copyright (c) Steve Scherf et al.
# Submitted via: CDex 1.51
#
DISCID=18034603
DTITLE=CAVE - 女神
DYEAR=2001
DGENRE=JPop
TTITLE0=女神
TTITLE1=ウェンディ
TTITLE2=女神 (Instrumental)
EXTD=YEAR: 2001
EXTT0=
EXTT1=
EXTT2=
PLAYORDER=
